<?xml version="1.0" encoding="UTF-8"?>
<svg xmlns="http://www.w3.org/2000/svg" viewBox="0 0 512 512">
  <defs>
    <style>
      .cls-1 {
        fill: #fff;
      }
    </style>
  </defs>
  <g id="Layer_6" data-name="Layer 6">
    <circle class="cls-1" cx="256" cy="256" r="256"/>
  </g>
  <g id="Layer_3_copy" data-name="Layer 3 copy">
    <path d="M147.35,363.85c-.14,3.31-.25,6.69-.34,10.16-.04,1.73-.09,3.48-.1,5.26.04,1.79.08,3.59.12,5.41.09,3.64.21,7.36.36,11.13.1,3.67.42,7.87.87,12.27.47,4.43,1.13,9.17,2.23,14.25,1.1,5.08,2.63,10.51,4.99,16.19,2.35,5.66,5.59,11.59,9.97,17.12,4.34,5.53,9.9,10.54,15.73,14.24,5.86,3.76,12,6.36,17.95,8.1,5.97,1.74,11.8,2.67,17.43,3.08,5.64.41,11.08.3,16.4-.17l1.99-.18,1.89-.25,3.77-.51c2.51-.35,4.96-.88,7.44-1.33,9.83-2.02,19.19-5.09,28.02-8.7,8.84-3.62,17.16-7.82,25.06-12.28,7.9-4.46,15.39-9.2,22.6-13.98,7.2-4.78,14.11-9.61,20.96-14.42,13.62-9.68,26.63-19.35,38.75-28.8,24.28-18.84,45.13-36.54,61.59-50.17-17.92,11.63-41.78,24.93-69.14,37.93-13.66,6.52-28.23,12.92-43.29,19.14-7.54,3.06-15.23,6.16-22.93,9.06-7.69,2.9-15.39,5.6-23.04,7.89-15.28,4.6-30.42,7.53-44.23,7.42-1.72-.07-3.43-.03-5.11-.16l-2.51-.18-1.24-.08-1.15-.14c-3.04-.37-5.91-.95-8.46-1.7-5.13-1.48-8.77-3.79-10.05-5.62-.7-.94-.88-1.59-1.14-2.45-.24-.85-.52-1.95-.81-3.51-.59-3.1-.96-7.97-.9-13.65.03-2.87.07-5.85.27-9.23.16-3.28.29-6.49.39-9.65.05-1.58.09-3.14.14-4.68.09-1.56.19-3.09.28-4.62.18-3.05.33-6.02.44-8.93.06-1.45.11-2.93.17-4.42.09-1.5.19-3.02.29-4.56.18-3.07.34-6.22.47-9.43.09-3.2.36-6.52.56-9.88.18-3.37.37-6.8.55-10.28.46-7.04.93-14.3,1.41-21.74.57-7.5,1.02-15.18,1.65-23.1,1.12-15.77,2.44-32.37,3.57-49.29.56-8.51,1.13-17.03,1.57-25.68.22-4.32.48-8.61.65-12.95.16-4.34.33-8.67.49-13,.19-4.31.22-8.68.31-12.99.04-2.16.08-4.32.11-6.47.05-2.15.07-4.3.04-6.46-.03-4.3-.05-8.59-.08-12.85l-.02-3.18-.1-3.19c-.07-2.12-.15-4.23-.22-6.34-.07-2.1-.15-4.2-.22-6.28-.04-1.04-.07-2.08-.11-3.12-.04-1.04-.13-2.08-.2-3.12-.28-4.14-.56-8.24-.83-12.3-.52-8.04-1.32-16.25-2.91-24.28-1.59-8.03-4.2-15.87-8.25-22.7-4.1-6.84-9.57-12.32-15.74-16-3.09-1.83-6.36-3.19-9.66-3.97-3.3-.79-6.63-.97-9.77-.66-6.29.66-11.7,3.21-16.01,6.32,4.64-2.6,10.28-4.28,16.08-3.96,5.79.29,11.5,2.78,16.08,6.86,4.6,4.05,8.2,9.56,10.28,15.6,2.08,6.1,2.85,12.87,2.69,19.92-.16,7.06-1.05,14.46-2.3,22.26-.61,3.86-1.23,7.76-1.85,11.7-.16.98-.3,1.96-.48,2.95-.19.98-.38,1.97-.57,2.96-.38,1.97-.77,3.95-1.15,5.94-.38,1.98-.77,3.97-1.16,5.96l-.59,2.99-.67,3c-.89,3.99-1.79,8.01-2.69,12.04-.43,2.01-.92,4.03-1.43,6.05-.5,2.02-1,4.04-1.5,6.07-1.02,4.05-1.95,8.09-3.07,12.16-1.07,4.06-2.14,8.13-3.22,12.19-1.07,4.06-2.23,8.15-3.33,12.22-2.25,8.17-4.5,16.32-6.74,24.41-4.49,16.29-8.92,32.41-12.78,48.35-1.99,7.91-3.71,15.85-5.4,23.58-.87,3.85-1.55,7.76-2.3,11.57-.71,3.83-1.44,7.59-2.07,11.33-.57,3.77-1.12,7.48-1.67,11.12-.52,3.65-1.07,7.22-1.4,10.81-.37,3.56-.71,7.06-1.02,10.49-.15,1.71-.29,3.41-.44,5.08-.11,1.68-.17,3.36-.24,5.01Z"/>
  </g>
  <g id="Layer_5_copy" data-name="Layer 5 copy">
    <path d="M265.9,283.56c24.52-11.35,56.38-32.4,86.33-54.29,30.02-21.83,58.17-44.38,77.19-57.31-20.87,9.71-54.89,21.51-89.69,33.07-34.79,11.66-70.4,22.98-94.39,34.08-24,11.09-55.69,30.89-87.1,49.85-31.35,19.03-62.36,37.3-83.28,46.92,22.16-6.12,57.58-12.96,93.65-21.7,36.08-8.64,72.75-19.29,97.28-30.62Z"/>
  </g>
</svg>