<?xml version="1.0" encoding="UTF-8"?>
<svg xmlns="http://www.w3.org/2000/svg" viewBox="0 0 512 512">
  <defs>
    <style>
      .cls-1 {
        fill: #fff;
      }
    </style>
  </defs>
  <g id="Layer_6" data-name="Layer 6">
    <circle class="cls-1" cx="256" cy="256" r="256"/>
  </g>
  <g id="Layer_3_copy" data-name="Layer 3 copy">
    <path d="M162.53,348.32c-.12,3.05-.22,6.17-.3,9.36-.05,3.2-.2,6.44-.06,9.81.09,3.36.2,6.78.33,10.26.07,1.74.14,3.49.22,5.26.06.93.13,1.87.19,2.81.08.97.16,1.94.24,2.92.75,7.92,1.91,16.98,5.48,27.23,1.8,5.1,4.28,10.51,7.79,15.77,1.75,2.63,3.77,5.2,6,7.62,1.11,1.21,2.34,2.36,3.53,3.5,1.22,1.11,2.51,2.14,3.79,3.17,5.21,4.01,10.89,6.92,16.46,8.93,5.59,2.02,11.1,3.18,16.41,3.79,5.32.61,10.45.67,15.44.37,1.26-.05,2.48-.19,3.72-.3,1.24-.11,2.36-.3,3.54-.45l3.5-.49,3.45-.64c9.17-1.76,17.93-4.49,26.15-7.81,8.23-3.32,15.93-7.23,23.24-11.38,7.31-4.16,14.22-8.58,20.85-13.05,6.63-4.48,12.98-8.98,19.26-13.49,12.51-9.04,24.43-18.1,35.54-26.91,22.25-17.61,41.33-34.16,56.39-46.91-16.43,10.93-38.32,23.45-63.45,35.71-12.56,6.14-25.93,12.2-39.79,18.05-6.93,2.9-14.01,5.82-21.08,8.54-7.07,2.72-14.14,5.25-21.17,7.39-7.03,2.13-14,3.89-20.81,5.04-6.8,1.14-13.43,1.68-19.72,1.56l-2.35-.05-2.31-.17c-.75-.06-1.56-.08-2.25-.18-.69-.1-1.4-.15-2.07-.28-2.72-.42-5.26-1.03-7.44-1.79-2.19-.76-4.02-1.68-5.36-2.61-1.34-.94-2.19-1.85-2.63-2.65-.45-.8-.59-1.42-.86-2.4-.25-.96-.55-2.25-.8-3.94-.53-3.39-.73-8.26-.61-13.76.04-1.44.08-2.86.12-4.28.08-1.54.16-3.07.23-4.59.14-3.03.26-6.01.36-8.93.04-2.91.32-5.81.46-8.62.16-2.82.3-5.57.4-8.27.03-.67.05-1.35.08-2.03.05-.69.09-1.38.14-2.07.08-1.39.17-2.8.26-4.22.16-2.84.3-5.75.42-8.73.35-5.97.74-12.21,1.06-18.66.86-12.97,1.69-26.85,2.78-41.47,2.04-29.18,4.53-61.23,5.48-93.22.4-16.01.57-31.96-.09-47.51-.07-1.94-.14-3.87-.21-5.8-.04-.96-.07-1.92-.11-2.88-.05-.96-.13-1.92-.19-2.88-.26-3.82-.52-7.6-.78-11.35-.49-7.42-1.22-14.98-2.65-22.38-1.43-7.39-3.74-14.63-7.37-20.97-3.66-6.37-8.58-11.54-14.2-15.07-2.81-1.76-5.8-3.08-8.84-3.86-3.04-.79-6.12-.99-9.01-.74-5.82.57-10.81,2.97-14.76,5.88,4.26-2.45,9.46-4.04,14.81-3.7,5.33.31,10.55,2.72,14.69,6.58,4.16,3.83,7.37,8.99,9.2,14.61,1.84,5.69,2.48,11.97,2.31,18.5-.17,6.54-1,13.39-2.15,20.59-.56,3.57-1.13,7.17-1.7,10.81-.15.91-.28,1.81-.44,2.72-.17.91-.35,1.82-.52,2.73-.35,1.82-.7,3.65-1.05,5.49-2.72,14.66-6.34,29.62-10.11,44.63-7.69,30.04-16.63,60.41-23.7,89.8-3.59,14.64-6.55,29.1-8.92,42.86-1.08,6.93-2.07,13.67-2.85,20.19-.34,3.29-.65,6.51-.93,9.67-.13,1.58-.27,3.14-.4,4.68-.06.77-.12,1.54-.18,2.3-.03.77-.07,1.54-.1,2.3Z"/>
  </g>
  <g id="Layer_5_copy" data-name="Layer 5 copy">
    <path d="M271.09,275.19c22.33-10.57,51.25-30.12,78.41-50.42,27.23-20.25,52.73-41.15,69.98-53.15-18.99,9.06-49.99,20.11-81.7,30.95-31.7,10.92-64.15,21.54-85.98,31.88-21.84,10.33-50.61,28.71-79.15,46.31-28.48,17.66-56.68,34.62-75.72,43.57,20.22-5.73,52.55-12.2,85.47-20.43,32.92-8.14,66.37-18.13,88.7-28.7Z"/>
  </g>
</svg>